+ filenameToUse=/home/horvathandras/vatic/vatic/public/videouploads/DJI_0072_30m_regi_disznoturas_homokmegy_20180603_napos_kalaszos_T4.avi
+ filenameNoDot=DJI_0072_30m_regi_disznoturas_homokmegy_20180603_napos_kalaszos_T4
+ FullUploadPath=/home/horvathandras/vatic/vatic/public/videouploads/DJI_0072_30m_regi_disznoturas_homokmegy_20180603_napos_kalaszos_T4.avi
+ VideoDataDir=/home/horvathandras/vatic/vatic/videos
+ AvailableObjectTypes='PozitívROI NegatívROI Túrás ~Friss ~1-2Hetes ~Régebbi ~Egyéb1 ~Egyéb2 ~Egyéb3 Rágás ~Friss ~1-2Hetes ~Régebbi ~Egyéb1 ~Egyéb2 ~Egyéb3 Törés ~Friss ~1-2Hetes ~Régebbi ~Egyéb1 ~Egyéb2 ~Egyéb3 Taposás ~Friss ~1-2Hetes ~Régebbi ~Egyéb1 ~Egyéb2 ~Egyéb3 EgészségesNövény Egyéb1 Egyéb2 Egyéb3 Egyéb4 Egyéb5 Bizonytalan Művelőút Gktaposás Vetőhiba Széldöntés Jégkár Belvíz Aszály Erózió EgyszikűGyom KétszikűGyom EgyébNövvédelmiPR'
++ dirname /home/horvathandras/vatic/vatic/vatic_publisher.sh
+ cd /home/horvathandras/vatic/vatic
+ touch /home/horvathandras/vatic/vatic/public/videouploads/DJI_0072_30m_regi_disznoturas_homokmegy_20180603_napos_kalaszos_T4.avi
+ chmod 744 /home/horvathandras/vatic/vatic/public/videouploads/DJI_0072_30m_regi_disznoturas_homokmegy_20180603_napos_kalaszos_T4.avi
+ mkdir /home/horvathandras/vatic/vatic/videos/DJI_0072_30m_regi_disznoturas_homokmegy_20180603_napos_kalaszos_T4
mkdir: cannot create directory '/home/horvathandras/vatic/vatic/videos/DJI_0072_30m_regi_disznoturas_homokmegy_20180603_napos_kalaszos_T4': File exists
+ turkic extract /home/horvathandras/vatic/vatic/public/videouploads/DJI_0072_30m_regi_disznoturas_homokmegy_20180603_napos_kalaszos_T4.avi /home/horvathandras/vatic/vatic/videos/DJI_0072_30m_regi_disznoturas_homokmegy_20180603_napos_kalaszos_T4 --no-resize
ffmpeg version 2.8.14-0ubuntu0.16.04.1 Copyright (c) 2000-2018 the FFmpeg developers
  built with gcc 5.4.0 (Ubuntu 5.4.0-6ubuntu1~16.04.9) 20160609
  configuration: --prefix=/usr --extra-version=0ubuntu0.16.04.1 --build-suffix=-ffmpeg --toolchain=hardened --libdir=/usr/lib/x86_64-linux-gnu --incdir=/usr/include/x86_64-linux-gnu --cc=cc --cxx=g++ --enable-gpl --enable-shared --disable-stripping --disable-decoder=libopenjpeg --disable-decoder=libschroedinger --enable-avresample --enable-avisynth --enable-gnutls --enable-ladspa --enable-libass --enable-libbluray --enable-libbs2b --enable-libcaca --enable-libcdio --enable-libflite --enable-libfontconfig --enable-libfreetype --enable-libfribidi --enable-libgme --enable-libgsm --enable-libmodplug --enable-libmp3lame --enable-libopenjpeg --enable-libopus --enable-libpulse --enable-librtmp --enable-libschroedinger --enable-libshine --enable-libsnappy --enable-libsoxr --enable-libspeex --enable-libssh --enable-libtheora --enable-libtwolame --enable-libvorbis --enable-libvpx --enable-libwavpack --enable-libwebp --enable-libx265 --enable-libxvid --enable-libzvbi --enable-openal --enable-opengl --enable-x11grab --enable-libdc1394 --enable-libiec61883 --enable-libzmq --enable-frei0r --enable-libx264 --enable-libopencv
  libavutil      54. 31.100 / 54. 31.100
  libavcodec     56. 60.100 / 56. 60.100
  libavformat    56. 40.101 / 56. 40.101
  libavdevice    56.  4.100 / 56.  4.100
  libavfilter     5. 40.101 /  5. 40.101
  libavresample   2.  1.  0 /  2.  1.  0
  libswscale      3.  1.101 /  3.  1.101
  libswresample   1.  2.101 /  1.  2.101
  libpostproc    53.  3.100 / 53.  3.100
Input #0, mov,mp4,m4a,3gp,3g2,mj2, from '/home/horvathandras/vatic/vatic/public/videouploads/DJI_0072_30m_regi_disznoturas_homokmegy_20180603_napos_kalaszos_T4.avi':
  Metadata:
    major_brand     : qt  
    minor_version   : 537986816
    compatible_brands: qt  
    creation_time   : 2018-06-03 09:05:31
    location        : +46.516197+19.169236+31.000
    location-{    : +46.516197+19.169236+31.000
    comment         : DE=None, Mode=P, DSW=0001
  Duration: 00:00:17.86, start: 0.000000, bitrate: 101062 kb/s
    Stream #0:0(eng): Video: h264 (High) (avc1 / 0x31637661), yuv420p(tv, bt709), 4096x2160 [SAR 1:1 DAR 256:135], 100839 kb/s, 50 fps, 50 tbr, 50k tbn, 100 tbc (default)
    Metadata:
      creation_time   : 2018-06-03 09:05:31
      handler_name    : DJI.AVC
      encoder         : AVC encoder
    Stream #0:1(eng): Data: none (priv / 0x76697270), 205 kb/s
    Metadata:
      creation_time   : 2018-06-03 09:05:31
      handler_name    : DJI.Meta
Please use -b:a or -b:v, -b is ambiguous
[swscaler @ 0x9b1000] deprecated pixel format used, make sure you did set range correctly
Output #0, image2, to '/tmp/pyvision-ffmpeg-217465339/%d.jpg':
  Metadata:
    major_brand     : qt  
    minor_version   : 537986816
    compatible_brands: qt  
    comment         : DE=None, Mode=P, DSW=0001
    location        : +46.516197+19.169236+31.000
    location-{    : +46.516197+19.169236+31.000
    encoder         : Lavf56.40.101
    Stream #0:0(eng): Video: mjpeg, yuvj420p(pc), 4096x2160 [SAR 1:1 DAR 256:135], q=2-31, 10000 kb/s, 50 fps, 50 tbn, 50 tbc (default)
    Metadata:
      creation_time   : 2018-06-03 09:05:31
      handler_name    : DJI.AVC
      encoder         : Lavc56.60.100 mjpeg
Stream mapping:
  Stream #0:0 -> #0:0 (h264 (native) -> mjpeg (native))
Press [q] to stop, [?] for help
frame=    1 fps=0.5 q=18.0 size=N/A time=00:00:00.02 bitrate=N/A    frame=    2 fps=0.8 q=20.0 size=N/A time=00:00:00.04 bitrate=N/A    frame=    4 fps=1.2 q=24.8 size=N/A time=00:00:00.08 bitrate=N/A    frame=    6 fps=1.5 q=24.8 size=N/A time=00:00:00.12 bitrate=N/A    frame=    8 fps=1.8 q=24.8 size=N/A time=00:00:00.16 bitrate=N/A    frame=   10 fps=1.9 q=24.8 size=N/A time=00:00:00.20 bitrate=N/A    frame=   12 fps=2.0 q=24.8 size=N/A time=00:00:00.24 bitrate=N/A    frame=   14 fps=2.0 q=24.8 size=N/A time=00:00:00.28 bitrate=N/A    frame=   16 fps=2.1 q=24.8 size=N/A time=00:00:00.32 bitrate=N/A    frame=   18 fps=2.1 q=24.8 size=N/A time=00:00:00.36 bitrate=N/A    frame=   20 fps=2.1 q=24.8 size=N/A time=00:00:00.40 bitrate=N/A    frame=   22 fps=2.1 q=24.8 size=N/A time=00:00:00.44 bitrate=N/A    frame=   23 fps=2.1 q=24.8 size=N/A time=00:00:00.46 bitrate=N/A    frame=   25 fps=2.2 q=24.8 size=N/A time=00:00:00.50 bitrate=N/A    frame=   27 fps=2.2 q=24.8 size=N/A time=00:00:00.54 bitrate=N/A    frame=   29 fps=2.2 q=24.8 size=N/A time=00:00:00.58 bitrate=N/A    frame=   31 fps=2.2 q=24.8 size=N/A time=00:00:00.62 bitrate=N/A    frame=   33 fps=2.2 q=24.8 size=N/A time=00:00:00.66 bitrate=N/A    frame=   35 fps=2.3 q=24.8 size=N/A time=00:00:00.70 bitrate=N/A    frame=   37 fps=2.3 q=24.8 size=N/A time=00:00:00.74 bitrate=N/A    frame=   39 fps=2.3 q=24.8 size=N/A time=00:00:00.78 bitrate=N/A    frame=   41 fps=2.3 q=24.8 size=N/A time=00:00:00.82 bitrate=N/A    frame=   43 fps=2.3 q=24.8 size=N/A time=00:00:00.86 bitrate=N/A    frame=   45 fps=2.3 q=24.8 size=N/A time=00:00:00.90 bitrate=N/A    frame=   47 fps=2.3 q=24.8 size=N/A time=00:00:00.94 bitrate=N/A    frame=   49 fps=2.3 q=24.8 size=N/A time=00:00:00.98 bitrate=N/A    frame=   51 fps=2.4 q=24.8 size=N/A time=00:00:01.02 bitrate=N/A    frame=   53 fps=2.4 q=24.8 size=N/A time=00:00:01.06 bitrate=N/A    frame=   55 fps=2.4 q=24.8 size=N/A time=00:00:01.10 bitrate=N/A    frame=   57 fps=2.4 q=24.8 size=N/A time=00:00:01.14 bitrate=N/A    frame=   59 fps=2.4 q=24.8 size=N/A time=00:00:01.18 bitrate=N/A    frame=   61 fps=2.4 q=24.8 size=N/A time=00:00:01.22 bitrate=N/A    frame=   63 fps=2.4 q=24.8 size=N/A time=00:00:01.26 bitrate=N/A    frame=   65 fps=2.4 q=24.8 size=N/A time=00:00:01.30 bitrate=N/A    frame=   67 fps=2.4 q=24.8 size=N/A time=00:00:01.34 bitrate=N/A    frame=   69 fps=2.4 q=24.8 size=N/A time=00:00:01.38 bitrate=N/A    frame=   71 fps=2.4 q=24.8 size=N/A time=00:00:01.42 bitrate=N/A    frame=   73 fps=2.4 q=24.8 size=N/A time=00:00:01.46 bitrate=N/A    frame=   75 fps=2.4 q=24.8 size=N/A time=00:00:01.50 bitrate=N/A    frame=   77 fps=2.4 q=24.8 size=N/A time=00:00:01.54 bitrate=N/A    frame=   79 fps=2.4 q=24.8 size=N/A time=00:00:01.58 bitrate=N/A    frame=   81 fps=2.4 q=24.8 size=N/A time=00:00:01.62 bitrate=N/A    frame=   83 fps=2.4 q=24.8 size=N/A time=00:00:01.66 bitrate=N/A    frame=   85 fps=2.4 q=24.8 size=N/A time=00:00:01.70 bitrate=N/A    frame=   87 fps=2.4 q=24.8 size=N/A time=00:00:01.74 bitrate=N/A    frame=   89 fps=2.4 q=24.8 size=N/A time=00:00:01.78 bitrate=N/A    frame=   91 fps=2.4 q=24.8 size=N/A time=00:00:01.82 bitrate=N/A    frame=   93 fps=2.4 q=24.8 size=N/A time=00:00:01.86 bitrate=N/A    frame=   95 fps=2.4 q=24.8 size=N/A time=00:00:01.90 bitrate=N/A    frame=   97 fps=2.4 q=24.8 size=N/A time=00:00:01.94 bitrate=N/A    frame=   99 fps=2.4 q=24.8 size=N/A time=00:00:01.98 bitrate=N/A    frame=  100 fps=2.4 q=24.8 size=N/A time=00:00:02.00 bitrate=N/A    frame=  102 fps=2.4 q=24.8 size=N/A time=00:00:02.04 bitrate=N/A    frame=  104 fps=2.4 q=24.8 size=N/A time=00:00:02.08 bitrate=N/A    frame=  106 fps=2.4 q=24.8 size=N/A time=00:00:02.12 bitrate=N/A    frame=  108 fps=2.4 q=24.8 size=N/A time=00:00:02.16 bitrate=N/A    frame=  110 fps=2.4 q=24.8 size=N/A time=00:00:02.20 bitrate=N/A    frame=  112 fps=2.4 q=24.8 size=N/A time=00:00:02.24 bitrate=N/A    frame=  114 fps=2.4 q=24.8 size=N/A time=00:00:02.28 bitrate=N/A    frame=  116 fps=2.4 q=24.8 size=N/A time=00:00:02.32 bitrate=N/A    frame=  118 fps=2.4 q=24.8 size=N/A time=00:00:02.36 bitrate=N/A    frame=  120 fps=2.4 q=24.8 size=N/A time=00:00:02.40 bitrate=N/A    frame=  122 fps=2.4 q=24.8 size=N/A time=00:00:02.44 bitrate=N/A    frame=  124 fps=2.4 q=24.8 size=N/A time=00:00:02.48 bitrate=N/A    frame=  125 fps=2.4 q=24.8 size=N/A time=00:00:02.50 bitrate=N/A    frame=  127 fps=2.4 q=24.8 size=N/A time=00:00:02.54 bitrate=N/A    frame=  129 fps=2.4 q=24.8 size=N/A time=00:00:02.58 bitframe=  141 fframe=  131 fps=2.4 q=24.8 size=N/A time=00:00:02.62 bitrate=N/A    frame=  133 fps=2.4 q=24.8 size=N/A time=00:00:02.66 bitrate=N/A    frame=  135 fps=2.4 q=24.8 size=N/A time=00:00:02.70 bitrate=N/A    frame=  137 fps=2.4 q=24.8 size=N/A time=00:00:02.74 bitrate=N/A    frame=  139 fps=2.4 q=24.8 size=N/A time=00:00:02.78 bitrate=N/A    frame=  141 fps=2.4 q=24.8 size=N/A time=00:00:02.82 bitrate=N/A    frame=  143 fps=2.4 q=24.8 size=N/A time=00:00:02.86 bitrate=N/A    frame=  145 fps=2.4 q=24.8 size=N/A time=00:00:02.90 bitrate=N/A    frame=  147 fps=2.4 q=24.8 size=N/A time=00:00:02.94 bitrate=N/A    frame=  149 fps=2.4 q=24.8 size=N/A time=00:00:02.98 bitrate=N/A    frame=  151 fps=2.4 q=24.8 size=N/A time=00:00:03.02 bitrate=N/A    frame=  153 fps=2.4 q=24.8 size=N/A time=00:00:03.06 bitrate=N/A    frame=  154 fps=2.4 q=24.8 size=N/A time=00:00:03.08 bitrate=N/A    frame=  156 fps=2.4 q=24.8 size=N/A time=00:00:03.12 bitrate=N/A    frame=  158 fps=2.4 q=24.8 size=N/A time=00:00:03.16 bitrate=N/A    frame=  160 fps=2.4 q=24.8 size=N/A time=00:00:03.20 bitrate=N/A    frame=  162 fps=2.4 q=24.8 size=N/A time=00:00:03.24 bitrate=N/A    frame=  164 fps=2.4 q=24.8 size=N/A time=00:00:03.28 bitrate=N/A    frame=  166 fps=2.4 q=24.8 size=N/A time=00:00:03.32 bitrate=N/A    frame=  168 fps=2.4 q=24.8 size=N/A time=00:00:03.36 bitrate=N/A    frame=  170 fps=2.4 q=24.8 size=N/A time=00:00:03.40 bitrate=N/A    frame=  172 fps=2.4 q=24.8 size=N/A time=00:00:03.44 bitrate=N/A    frame=  174 fps=2.4 q=24.8 size=N/A time=00:00:03.48 bitrate=N/A    frame=  176 fps=2.4 q=24.8 size=N/A time=00:00:03.52 bitrate=N/A    frame=  177 fps=2.4 q=24.8 size=N/A time=00:00:03.54 bitframe=  191 fframe=  179 fps=2.4 q=24.8 size=N/A time=00:00:03.58 bitframe=  193 fframe=  181 fps=2.4 q=24.8 size=N/A time=00:00:03.62 bitframe=  195 fframe=  183 fps=2.4 q=24.8 size=N/A time=00:00:03.66 bitframe=  197 fframe=  185 fps=2.4 q=24.8 size=N/A time=00:00:03.70 bitframe=  199 fframe=  187 fps=2.4 q=24.8 size=N/A time=00:00:03.74 bitframe=  201 fframe=  189 fps=2.4 q=24.8 size=N/A time=00:00:03.78 bitframe=  203 fframe=  191 fps=2.4 q=24.8 size=N/A time=00:00:03.82 bitframe=  205 fframe=  193 fps=2.4 q=24.8 size=N/A time=00:00:03.86 bitframe=  207 fframe=  195 fps=2.4 q=24.8 size=N/A time=00:00:03.90 bitframe=  209 fframe=  197 fps=2.4 q=24.8 size=N/A time=00:00:03.94 bitframe=  211 fframe=  199 fps=2.4 q=24.8 size=N/A time=00:00:03.98 bitframe=  213 fframe=  201 fps=2.4 q=24.8 size=N/A time=00:00:04.02 bitframe=  215 fframe=  203 fps=2.4 q=24.8 size=N/A time=00:00:04.06 bitframe=  217 fframe=  204 fps=2.4 q=24.8 size=N/A time=00:00:04.08 bitframe=  219 fframe=  206 fps=2.4 q=24.8 size=N/A time=00:00:04.12 bitframe=  221 fframe=  208 fps=2.4 q=24.8 size=N/A time=00:00:04.16 bitframe=  223 fps=2.5 q=24.8 size=N/A time=00:00:04.46 bitrate=N/A    frame=  225 fframe=  211 fps=2.4 q=24.8 size=N/A time=00:00:04.22 bitframe=  227 fps=2.5 q=24.8 size=N/A time=00:00:04.54 bitrate=N/A    frame=  229 fps=2.5 q=24.8 size=N/A time=00:00:04.58 bitrate=N/A    frame=  231 fps=2.5 q=24.8 size=N/A time=00:00:04.62 bitrate=N/A    frame=  233 fps=2.5 q=24.8 size=N/A time=00:00:04.66 bitrate=N/A    frame=  235 fps=2.5 q=24.8 size=N/A time=00:00:04.70 bitrate=N/A    frame=  237 fps=2.5 q=24.8 size=N/A time=00:00:04.74 bitrate=N/A    frame=  239 fps=2.5 q=24.8 size=N/A time=00:00:04.78 bitrate=N/A    frame=  241 fps=2.5 q=24.8 size=N/A time=00:00:04.82 bitrate=N/A    frame=  243 fps=2.5 q=24.8 size=N/A time=00:00:04.86 bitrate=N/A    frame=  245 fps=2.5 q=24.8 size=N/A time=00:00:04.90 bitrate=N/A    frame=  247 fps=2.5 q=24.8 size=N/A time=00:00:04.94 bitrate=N/A    frame=  249 fps=2.5 q=24.8 size=N/A time=00:00:04.98 bitrate=N/A    frame=  251 fps=2.5 q=24.8 size=N/A time=00:00:05.02 bitrate=N/A    frame=  253 fps=2.5 q=24.8 size=N/A time=00:00:05.06 bitrate=N/A    frame=  255 fps=2.5 q=24.8 size=N/A time=00:00:05.10 bitrate=N/A    frame=  257 fps=2.5 q=24.8 size=N/A time=00:00:05.14 bitrate=N/A    frame=  259 fps=2.5 q=24.8 size=N/A time=00:00:05.18 bitrate=N/A    frame=  261 fps=2.5 q=24.8 size=N/A time=00:00:05.22 bitrate=N/A    frame=  263 fps=2.5 q=24.8 size=N/A time=00:00:05.26 bitrate=N/A    frame=  265 fps=2.5 q=24.8 size=N/A time=00:00:05.30 bitrate=N/A    frame=  267 fps=2.5 q=24.8 size=N/A time=00:00:05.34 bitrate=N/A    frame=  269 fps=2.5 q=24.8 size=N/A time=00:00:05.38 bitrate=N/A    frame=  271 fps=2.5 q=24.8 size=N/A time=00:00:05.42 bitrate=N/A    frame=  273 fps=2.5 q=24.8 size=N/A time=00:00:05.46 bitrate=N/A    frame=  275 fps=2.5 q=24.8 size=N/A time=00:00:05.50 bitrate=N/A    frame=  277 fps=2.5 q=24.8 size=N/A time=00:00:05.54 bitrate=N/A    frame=  279 fps=2.5 q=24.8 size=N/A time=00:00:05.58 bitrate=N/A    frame=  281 fps=2.5 q=24.8 size=N/A time=00:00:05.62 bitrate=N/A    frame=  283 fps=2.5 q=24.8 size=N/A time=00:00:05.66 bitrate=N/A    frame=  285 fps=2.5 q=24.8 size=N/A time=00:00:05.70 bitrate=N/A    frame=  287 fps=2.5 q=24.8 size=N/A time=00:00:05.74 bitrate=N/A    frame=  289 fframe=  275 fps=2.5 q=24.8 size=N/A time=00:00:05.50 bitframe=  291 fframe=  277 fps=2.5 q=24.8 size=N/A time=00:00:05.54 bitframe=  293 fframe=  279 fps=2.5 q=24.8 size=N/A time=00:00:05.58 bitframe=  295 fframe=  281 fps=2.5 q=24.8 size=N/A time=00:00:05.62 bitframe=  297 fframe=  283 fps=2.5 q=24.8 size=N/A time=00:00:05.66 bitframe=  299 fframe=  285 fps=2.5 q=24.8 size=N/A time=00:00:05.70 bitframe=  301 fframe=  287 fps=2.5 q=24.8 size=N/A time=00:00:05.74 bitframe=  303 fframe=  289 fps=2.5 q=24.8 size=N/A time=00:00:05.78 bitframe=  305 fframe=  290 fps=2.5 q=24.8 size=N/A time=00:00:05.80 bitframe=  307 fframe=  292 fps=2.5 q=24.8 size=N/A time=00:00:05.84 bitframe=  309 fframe=  294 fps=2.5 q=24.8 size=N/A time=00:00:05.88 bitframe=  311 fframe=  296 fps=2.5 q=24.8 size=N/A time=00:00:05.92 bitframe=  313 fframe=  298 fps=2.5 q=24.8 size=N/A time=00:00:05.96 bitframe=  315 fframe=  300 fps=2.5 q=24.8 size=N/A time=00:00:06.00 bitframe=  317 fframe=  302 fps=2.5 q=24.8 size=N/A time=00:00:06.04 bitrate=N/A    frame=  304 fps=2.5 q=24.8 size=N/A time=00:00:06.08 bitrate=N/A    frame=  306 fps=2.5 q=24.8 size=N/A time=00:00:06.12 bitrate=N/A    frame=  308 fps=2.5 q=24.8 size=N/A time=00:00:06.16 bitrate=N/A    frame=  310 fps=2.5 q=24.8 size=N/A time=00:00:06.20 bitrate=N/A    frame=  312 fps=2.5 q=24.8 size=N/A time=00:00:06.24 bitrate=N/A    frame=  313 fps=2.5 q=24.8 size=N/A time=00:00:06.26 bitrate=N/A    frame=  315 fps=2.5 q=24.8 size=N/A time=00:00:06.30 bitrate=N/A    frame=  317 fps=2.5 q=24.8 size=N/A time=00:00:06.34 bitrate=N/A    frame=  319 fps=2.5 q=24.8 size=N/A time=00:00:06.38 bitrate=N/A    frame=  321 fps=2.5 q=24.8 size=N/A time=00:00:06.42 bitrate=N/A    frame=  323 fps=2.5 q=24.8 size=N/A time=00:00:06.46 bitrate=N/A    frame=  325 fps=2.5 q=24.8 size=N/A time=00:00:06.50 bitframe=  343 fframe=  327 fps=2.5 q=24.8 size=N/A time=00:00:06.54 bitrate=N/A    frame=  329 fps=2.5 q=24.8 size=N/A time=00:00:06.58 bitrate=N/A    frame=  331 fps=2.5 q=24.8 size=N/A time=00:00:06.62 bitframe=  349 fframe=  333 fps=2.5 q=24.8 size=N/A time=00:00:06.66 bitframe=  351 fframe=  335 fps=2.5 q=24.8 size=N/A time=00:00:06.70 bitframe=  353 fframe=  337 fps=2.5 q=24.8 size=N/A time=00:00:06.74 bitframe=  355 fframe=  339 fps=2.5 q=24.8 size=N/A time=00:00:06.78 bitframe=  357 fframe=  341 fps=2.5 q=24.8 size=N/A time=00:00:06.82 bitframe=  359 fframe=  343 fps=2.5 q=24.8 size=N/A time=00:00:06.86 bitframe=  361 fframe=  345 fps=2.5 q=24.8 size=N/A time=00:00:06.90 bitframe=  363 fframe=  347 fps=2.5 q=24.8 size=N/A time=00:00:06.94 bitframe=  365 fframe=  349 fps=2.5 q=24.8 size=N/A time=00:00:06.98 bitframe=  367 fps=2.5 q=24.8 size=N/A time=00:00:07.34 bitrate=N/A    frame=  369 fframe=  353 fps=2.5 q=24.8 size=N/A time=00:00:07.06 bitframe=  371 fps=2.5 q=24.8 size=N/A time=00:00:07.42 bitrate=N/A    frame=  373 fps=2.5 q=24.8 size=N/A time=00:00:07.46 bitrate=N/A    frame=  375 fframe=  359 fps=2.5 q=24.8 size=N/A time=00:00:07.18 bitframe=  377 fframe=  361 fps=2.5 q=24.8 size=N/A time=00:00:07.22 bitframe=  379 fframe=  363 fps=2.5 q=24.8 size=N/A time=00:00:07.26 bitframe=  381 fframe=  365 fps=2.5 q=24.8 size=N/A time=00:00:07.30 bitframe=  383 fframe=  367 fps=2.5 q=24.8 size=N/A time=00:00:07.34 bitframe=  385 fframe=  369 fps=2.5 q=24.8 size=N/A time=00:00:07.38 bitframe=  387 fframe=  371 fps=2.5 q=24.8 size=N/A time=00:00:07.42 bitframe=  389 fframe=  373 fps=2.5 q=24.8 size=N/A time=00:00:07.46 bitframe=  391 fframe=  375 fps=2.5 q=24.8 size=N/A time=00:00:07.50 bitframe=  393 fframe=  377 fps=2.5 q=24.8 size=N/A time=00:00:07.54 bitframe=  395 fframe=  379 fps=2.5 q=24.8 size=N/A time=00:00:07.58 bitframe=  397 fframe=  381 fps=2.5 q=24.8 size=N/A time=00:00:07.62 bitframe=  399 fframe=  383 fps=2.5 q=24.8 size=N/A time=00:00:07.66 bitframe=  401 fframe=  385 fps=2.5 q=24.8 size=N/A time=00:00:07.70 bitframe=  403 fframe=  387 fps=2.5 q=24.8 size=N/A time=00:00:07.74 bitrate=N/A    frame=  389 fps=2.5 q=24.8 size=N/A time=00:00:07.78 bitrate=N/A    frame=  391 fps=2.5 q=24.8 size=N/A time=00:00:07.82 bitrate=N/A    frame=  393 fps=2.5 q=24.8 size=N/A time=00:00:07.86 bitrate=N/A    frame=  395 fps=2.5 q=24.8 size=N/A time=00:00:07.90 bitrate=N/A    frame=  397 fps=2.5 q=24.8 size=N/A time=00:00:07.94 bitrate=N/A    frame=  401 fps=2.5 q=24.8 size=N/A time=00:00:08.02 bitrate=N/A    frame=  403 fps=2.5 q=24.8 size=N/A time=00:00:08.06 bitrate=N/A    frame=  405 fps=2.5 q=24.8 size=N/A time=00:00:08.10 bitrate=N/A    frame=  407 fps=2.5 q=24.8 size=N/A time=00:00:08.14 bitframe=  422 fframe=  410 fps=2.5 q=24.8 size=N/A time=00:00:08.20 bitrate=N/A    frame=  412 fps=2.5 q=24.8 size=N/A time=00:00:08.24 bitrate=N/A    frame=  414 fps=2.5 q=24.8 size=N/A time=00:00:08.28 bitrate=N/A    frame=  416 fps=2.5 q=24.8 size=N/A time=00:00:08.32 bitrate=N/A    frame=  418 fps=2.5 q=24.8 size=N/A time=00:00:08.36 bitrate=N/A    frame=  420 fps=2.5 q=24.8 size=N/A time=00:00:08.40 bitrate=N/A    frame=  422 fps=2.5 q=24.8 size=N/A time=00:00:08.44 bitrate=N/A    frame=  424 fps=2.5 q=24.8 size=N/A time=00:00:08.48 bitrate=N/A    frame=  426 fps=2.5 q=24.8 size=N/A time=00:00:08.52 bitrate=N/A    frame=  428 fps=2.5 q=24.8 size=N/A time=00:00:08.56 bitrate=N/A    frame=  430 fps=2.5 q=24.8 size=N/A time=00:00:08.60 bitrate=N/A    frame=  432 fps=2.5 q=24.8 size=N/A time=00:00:08.64 bitrate=N/A    frame=  434 fps=2.5 q=24.8 size=N/A time=00:00:08.68 bitrate=N/A    frame=  436 fps=2.5 q=24.8 size=N/A time=00:00:08.72 bitrate=N/A    frame=  438 fps=2.5 q=24.8 size=N/A time=00:00:08.76 bitrate=N/A    frame=  440 fps=2.5 q=24.8 size=N/A time=00:00:08.80 bitrate=N/A    frame=  442 fps=2.5 q=24.8 size=N/A time=00:00:08.84 bitrate=N/A    frame=  444 fps=2.5 q=24.8 size=N/A time=00:00:08.88 bitrate=N/A    frame=  446 fps=2.5 q=24.8 size=N/A time=00:00:08.92 bitrate=N/A    frame=  448 fps=2.5 q=24.8 size=N/A time=00:00:08.96 bitrate=N/A    frame=  450 fps=2.5 q=24.8 size=N/A time=00:00:09.00 bitrate=N/A    frame=  452 fps=2.5 q=24.8 size=N/A time=00:00:09.04 bitrate=N/A    frame=  454 fps=2.5 q=24.8 size=N/A time=00:00:09.08 bitrate=N/A    frame=  456 fps=2.5 q=24.8 size=N/A time=00:00:09.12 bitrate=N/A    frame=  458 fps=2.5 q=24.8 size=N/A time=00:00:09.16 bitrate=N/A    frame=  460 fps=2.5 q=24.8 size=N/A time=00:00:09.20 bitrate=N/A    frame=  462 fps=2.5 q=24.8 size=N/A time=00:00:09.24 bitrate=N/A    frame=  464 fps=2.5 q=24.8 size=N/A time=00:00:09.28 bitrate=N/A    frame=  466 fps=2.5 q=24.8 size=N/A time=00:00:09.32 bitrate=N/A    frame=  468 fps=2.5 q=24.8 size=N/A time=00:00:09.36 bitrate=N/A    frame=  470 fps=2.5 q=24.8 size=N/A time=00:00:09.40 bitrate=N/A    frame=  472 fps=2.5 q=24.8 size=N/A time=00:00:09.44 bitrate=N/A    frame=  475 fps=2.5 q=24.8 size=N/A time=00:00:09.50 bitrate=N/A    frame=  477 fps=2.5 q=24.8 size=N/A time=00:00:09.54 bitrate=N/A    frame=  479 fps=2.5 q=24.8 size=N/A time=00:00:09.58 bitrate=N/A    frame=  481 fps=2.5 q=24.8 size=N/A time=00:00:09.62 bitrate=N/A    frame=  483 fps=2.5 q=24.8 size=N/A time=00:00:09.66 bitrate=N/A    frame=  485 fps=2.5 q=24.8 size=N/A time=00:00:09.70 bitrate=N/A    frame=  487 fps=2.5 q=24.8 size=N/A time=00:00:09.74 bitrate=N/A    frame=  489 fps=2.5 q=24.8 size=N/A time=00:00:09.78 bitrate=N/A    frame=  491 fps=2.5 q=24.8 size=N/A time=00:00:09.82 bitrate=N/A    frame=  493 fps=2.5 q=24.8 size=N/A time=00:00:09.86 bitrate=N/A    frame=  495 fps=2.5 q=24.8 size=N/A time=00:00:09.90 bitrate=N/A    frame=  497 fps=2.5 q=24.8 size=N/A time=00:00:09.94 bitrate=N/A    frame=  499 fps=2.5 q=24.8 size=N/A time=00:00:09.98 bitrate=N/A    frame=  501 fps=2.5 q=24.8 size=N/A time=00:00:10.02 bitrate=N/A    frame=  503 fps=2.5 q=24.8 size=N/A time=00:00:10.06 bitrate=N/A    frame=  505 fps=2.5 q=24.8 size=N/A time=00:00:10.10 bitrate=N/A    frame=  507 fps=2.5 q=24.8 size=N/A time=00:00:10.14 bitrate=N/A    frame=  509 fps=2.5 q=24.8 size=N/A time=00:00:10.18 bitrate=N/A    frame=  511 fps=2.5 q=24.8 size=N/A time=00:00:10.22 bitrate=N/A    frame=  512 fps=2.5 q=24.8 size=N/A time=00:00:10.24 bitrate=N/A    frame=  514 fps=2.5 q=24.8 size=N/A time=00:00:10.28 bitrate=N/A    frame=  516 fps=2.5 q=24.8 size=N/A time=00:00:10.32 bitrate=N/A    frame=  518 fps=2.5 q=24.8 size=N/A time=00:00:10.36 bitrate=N/A    frame=  520 fps=2.5 q=24.8 size=N/A time=00:00:10.40 bitrate=N/A    frame=  522 fps=2.5 q=24.8 size=N/A time=00:00:10.44 bitrate=N/A    frame=  524 fps=2.5 q=24.8 size=N/A time=00:00:10.48 bitrate=N/A    frame=  526 fps=2.5 q=24.8 size=N/A time=00:00:10.52 bitrate=N/A    frame=  528 fps=2.5 q=24.8 size=N/A time=00:00:10.56 bitrate=N/A    frame=  530 fps=2.5 q=24.8 size=N/A time=00:00:10.60 bitrate=N/A    frame=  532 fps=2.5 q=24.8 size=N/A time=00:00:10.64 bitrate=N/A    frame=  534 fps=2.5 q=24.8 size=N/A time=00:00:10.68 bitrate=N/A    frame=  536 fps=2.5 q=24.8 size=N/A time=00:00:10.72 bitrate=N/A    frame=  538 fps=2.5 q=24.8 size=N/A time=00:00:10.76 bitrate=N/A    frame=  540 fps=2.5 q=24.8 size=N/A time=00:00:10.80 bitrate=N/A    frame=  542 fps=2.5 q=24.8 size=N/A time=00:00:10.84 bitrate=N/A    frame=  544 fps=2.5 q=24.8 size=N/A time=00:00:10.88 bitrate=N/A    frame=  546 fps=2.5 q=24.8 size=N/A time=00:00:10.92 bitrate=N/A    frame=  548 fps=2.5 q=24.8 size=N/A time=00:00:10.96 bitrate=N/A    frame=  550 fps=2.5 q=24.8 size=N/A time=00:00:11.00 bitrate=N/A    frame=  552 fps=2.5 q=24.8 size=N/A time=00:00:11.04 bitrate=N/A    frame=  554 fps=2.5 q=24.8 size=N/A time=00:00:11.08 bitrate=N/A    frame=  556 fps=2.5 q=24.8 size=N/A time=00:00:11.12 bitrate=N/A    frame=  558 fps=2.5 q=24.8 size=N/A time=00:00:11.16 bitrate=N/A    frame=  560 fps=2.5 q=24.8 size=N/A time=00:00:11.20 bitrate=N/A    frame=  562 fps=2.5 q=24.8 size=N/A time=00:00:11.24 bitrate=N/A    frame=  564 fps=2.5 q=24.8 size=N/A time=00:00:11.28 bitrate=N/A    frame=  566 fps=2.5 q=24.8 size=N/A time=00:00:11.32 bitrate=N/A    frame=  568 fps=2.5 q=24.8 size=N/A time=00:00:11.36 bitrate=N/A    frame=  570 fps=2.5 q=24.8 size=N/A time=00:00:11.40 bitrate=N/A    frame=  572 fps=2.5 q=24.8 size=N/A time=00:00:11.44 bitrate=N/A    frame=  574 fps=2.5 q=24.8 size=N/A time=00:00:11.48 bitrate=N/A    frame=  576 fps=2.5 q=24.8 size=N/A time=00:00:11.52 bitrate=N/A    frame=  578 fps=2.5 q=24.8 size=N/A time=00:00:11.56 bitrate=N/A    frame=  580 fps=2.5 q=24.8 size=N/A time=00:00:11.60 bitrate=N/A    frame=  582 fps=2.5 q=24.8 size=N/A time=00:00:11.64 bitrate=N/A    frame=  584 fps=2.5 q=24.8 size=N/A time=00:00:11.68 bitrate=N/A    frame=  586 fps=2.5 q=24.8 size=N/A time=00:00:11.72 bitrate=N/A    frame=  588 fps=2.5 q=24.8 size=N/A time=00:00:11.76 bitrate=N/A    frame=  590 fps=2.5 q=24.8 size=N/A time=00:00:11.80 bitrate=N/A    frame=  592 fps=2.5 q=24.8 size=N/A time=00:00:11.84 bitrate=N/A    frame=  594 fps=2.5 q=24.8 size=N/A time=00:00:11.88 bitrate=N/A    frame=  595 fps=2.5 q=24.8 size=N/A time=00:00:11.90 bitrate=N/A    frame=  597 fps=2.5 q=24.8 size=N/A time=00:00:11.94 bitrate=N/A    frame=  599 fps=2.5 q=24.8 size=N/A time=00:00:11.98 bitrate=N/A    frame=  601 fps=2.5 q=24.8 size=N/A time=00:00:12.02 bitrate=N/A    frame=  603 fps=2.5 q=24.8 size=N/A time=00:00:12.06 bitrate=N/A    frame=  605 fps=2.5 q=24.8 size=N/A time=00:00:12.10 bitrate=N/A    frame=  607 fps=2.5 q=24.8 size=N/A time=00:00:12.14 bitrate=N/A    frame=  609 fps=2.5 q=24.8 size=N/A time=00:00:12.18 bitrate=N/A    frame=  611 fps=2.5 q=24.8 size=N/A time=00:00:12.22 bitrate=N/A    frame=  613 fps=2.5 q=24.8 size=N/A time=00:00:12.26 bitrate=N/A    frame=  615 fps=2.5 q=24.8 size=N/A time=00:00:12.30 bitrate=N/A    frame=  617 fps=2.5 q=24.8 size=N/A time=00:00:12.34 bitrate=N/A    frame=  619 fps=2.5 q=24.8 size=N/A time=00:00:12.38 bitrate=N/A    frame=  621 fps=2.5 q=24.8 size=N/A time=00:00:12.42 bitrate=N/A    frame=  623 fps=2.5 q=24.8 size=N/A time=00:00:12.46 bitrate=N/A    frame=  625 fps=2.5 q=24.8 size=N/A time=00:00:12.50 bitrate=N/A    frame=  627 fps=2.5 q=24.8 size=N/A time=00:00:12.54 bitrate=N/A    frame=  629 fps=2.5 q=24.8 size=N/A time=00:00:12.58 bitrate=N/A    frame=  631 fps=2.5 q=24.8 size=N/A time=00:00:12.62 bitrate=N/A    frame=  633 fps=2.5 q=24.8 size=N/A time=00:00:12.66 bitrate=N/A    frame=  635 fps=2.5 q=24.8 size=N/A time=00:00:12.70 bitrate=N/A    frame=  637 fps=2.5 q=24.8 size=N/A time=00:00:12.74 bitrate=N/A    frame=  639 fps=2.5 q=24.8 size=N/A time=00:00:12.78 bitrate=N/A    frame=  641 fps=2.5 q=24.8 size=N/A time=00:00:12.82 bitrate=N/A    frame=  643 fps=2.5 q=24.8 size=N/A time=00:00:12.86 bitrate=N/A    frame=  645 fps=2.5 q=24.8 size=N/A time=00:00:12.90 bitrate=N/A    frame=  647 fps=2.5 q=24.8 size=N/A time=00:00:12.94 bitrate=N/A    frame=  649 fps=2.5 q=24.8 size=N/A time=00:00:12.98 bitrate=N/A    frame=  651 fps=2.5 q=24.8 size=N/A time=00:00:13.02 bitrate=N/A    frame=  653 fps=2.5 q=24.8 size=N/A time=00:00:13.06 bitrate=N/A    frame=  655 fps=2.5 q=24.8 size=N/A time=00:00:13.10 bitrate=N/A    frame=  657 fps=2.5 q=24.8 size=N/A time=00:00:13.14 bitrate=N/A    frame=  659 fps=2.5 q=24.8 size=N/A time=00:00:13.18 bitrate=N/A    frame=  661 fps=2.5 q=24.8 size=N/A time=00:00:13.22 bitrate=N/A    frame=  663 fps=2.5 q=24.8 size=N/A time=00:00:13.26 bitrate=N/A    frame=  665 fps=2.5 q=24.8 size=N/A time=00:00:13.30 bitrate=N/A    frame=  667 fps=2.5 q=24.8 size=N/A time=00:00:13.34 bitrate=N/A    frame=  669 fps=2.5 q=24.8 size=N/A time=00:00:13.38 bitrate=N/A    frame=  671 fps=2.5 q=24.8 size=N/A time=00:00:13.42 bitrate=N/A    frame=  674 fps=2.5 q=24.8 size=N/A time=00:00:13.48 bitrate=N/A    frame=  676 fps=2.5 q=24.8 size=N/A time=00:00:13.52 bitrate=N/A    frame=  678 fps=2.5 q=24.8 size=N/A time=00:00:13.56 bitrate=N/A    frame=  680 fps=2.5 q=24.8 size=N/A time=00:00:13.60 bitrate=N/A    frame=  682 fps=2.5 q=24.8 size=N/A time=00:00:13.64 bitrate=N/A    frame=  684 fps=2.5 q=24.8 size=N/A time=00:00:13.68 bitrate=N/A    frame=  686 fps=2.5 q=24.8 size=N/A time=00:00:13.72 bitrate=N/A    frame=  688 fps=2.5 q=24.8 size=N/A time=00:00:13.76 bitrate=N/A    frame=  690 fps=2.5 q=24.8 size=N/A time=00:00:13.80 bitrate=N/A    frame=  692 fps=2.5 q=24.8 size=N/A time=00:00:13.84 bitrate=N/A    frame=  694 fps=2.6 q=24.8 size=N/A time=00:00:13.88 bitrate=N/A    frame=  696 fps=2.6 q=24.8 size=N/A time=00:00:13.92 bitrate=N/A    frame=  698 fps=2.5 q=24.8 size=N/A time=00:00:13.96 bitrate=N/A    frame=  700 fps=2.6 q=24.8 size=N/A time=00:00:14.00 bitrate=N/A    frame=  702 fps=2.6 q=24.8 size=N/A time=00:00:14.04 bitrate=N/A    frame=  704 fps=2.6 q=24.8 size=N/A time=00:00:14.08 bitrate=N/A    frame=  706 fps=2.6 q=24.8 size=N/A time=00:00:14.12 bitrate=N/A    frame=  708 fps=2.6 q=24.8 size=N/A time=00:00:14.16 bitrate=N/A    frame=  710 fps=2.6 q=24.8 size=N/A time=00:00:14.20 bitrate=N/A    frame=  712 fps=2.6 q=24.8 size=N/A time=00:00:14.24 bitrate=N/A    frame=  714 fps=2.6 q=24.8 size=N/A time=00:00:14.28 bitrate=N/A    frame=  717 fps=2.6 q=24.8 size=N/A time=00:00:14.34 bitrate=N/A    frame=  719 fps=2.6 q=24.8 size=N/A time=00:00:14.38 bitrate=N/A    frame=  721 fps=2.6 q=24.8 size=N/A time=00:00:14.42 bitrate=N/A    frame=  723 fps=2.6 q=24.8 size=N/A time=00:00:14.46 bitrate=N/A    frame=  725 fps=2.6 q=24.8 size=N/A time=00:00:14.50 bitrate=N/A    frame=  727 fps=2.6 q=24.8 size=N/A time=00:00:14.54 bitrate=N/A    frame=  729 fps=2.6 q=24.8 size=N/A time=00:00:14.58 bitrate=N/A    frame=  731 fps=2.6 q=24.8 size=N/A time=00:00:14.62 bitrate=N/A    frame=  733 fps=2.6 q=24.8 size=N/A time=00:00:14.66 bitrate=N/A    frame=  735 fps=2.6 q=24.8 size=N/A time=00:00:14.70 bitrate=N/A    frame=  737 fps=2.6 q=24.8 size=N/A time=00:00:14.74 bitrate=N/A    frame=  740 fps=2.6 q=24.8 size=N/A time=00:00:14.80 bitrate=N/A    frame=  742 fps=2.6 q=24.8 size=N/A time=00:00:14.84 bitrate=N/A    frame=  744 fps=2.6 q=24.8 size=N/A time=00:00:14.88 bitrate=N/A    frame=  746 fps=2.6 q=24.8 size=N/A time=00:00:14.92 bitrate=N/A    frame=  748 fps=2.6 q=24.8 size=N/A time=00:00:14.96 bitrate=N/A    frame=  750 fps=2.6 q=24.8 size=N/A time=00:00:15.00 bitrate=N/A    frame=  752 fps=2.6 q=24.8 size=N/A time=00:00:15.04 bitrate=N/A    frame=  754 fps=2.6 q=24.8 size=N/A time=00:00:15.08 bitrate=N/A    frame=  756 fps=2.6 q=24.8 size=N/A time=00:00:15.12 bitrate=N/A    frame=  758 fps=2.6 q=24.8 size=N/A time=00:00:15.16 bitrate=N/A    frame=  760 fps=2.6 q=24.8 size=N/A time=00:00:15.20 bitrate=N/A    frame=  762 fps=2.6 q=24.8 size=N/A time=00:00:15.24 bitrate=N/A    frame=  764 fps=2.6 q=24.8 size=N/A time=00:00:15.28 bitrate=N/A    frame=  766 fps=2.6 q=24.8 size=N/A time=00:00:15.32 bitrate=N/A    frame=  768 fps=2.6 q=24.8 size=N/A time=00:00:15.36 bitrate=N/A    frame=  770 fps=2.6 q=24.8 size=N/A time=00:00:15.40 bitrate=N/A    frame=  772 fps=2.6 q=24.8 size=N/A time=00:00:15.44 bitrate=N/A    frame=  774 fps=2.6 q=24.8 size=N/A time=00:00:15.48 bitrate=N/A    frame=  776 fps=2.6 q=24.8 size=N/A time=00:00:15.52 bitrate=N/A    frame=  778 fps=2.6 q=24.8 size=N/A time=00:00:15.56 bitrate=N/A    frame=  780 fps=2.6 q=24.8 size=N/A time=00:00:15.60 bitrate=N/A    frame=  782 fps=2.6 q=24.8 size=N/A time=00:00:15.64 bitrate=N/A    frame=  784 fps=2.6 q=24.8 size=N/A time=00:00:15.68 bitrate=N/A    frame=  786 fps=2.6 q=24.8 size=N/A time=00:00:15.72 bitrate=N/A    frame=  788 fps=2.6 q=24.8 size=N/A time=00:00:15.76 bitrate=N/A    frame=  790 fps=2.6 q=24.8 size=N/A time=00:00:15.80 bitrate=N/A    frame=  792 fps=2.6 q=24.8 size=N/A time=00:00:15.84 bitrate=N/A    frame=  794 fps=2.6 q=24.8 size=N/A time=00:00:15.88 bitrate=N/A    frame=  796 fps=2.6 q=24.8 size=N/A time=00:00:15.92 bitrate=N/A    frame=  798 fps=2.6 q=24.8 size=N/A time=00:00:15.96 bitrate=N/A    frame=  800 fps=2.6 q=24.8 size=N/A time=00:00:16.00 bitrate=N/A    frame=  802 fps=2.6 q=24.8 size=N/A time=00:00:16.04 bitrate=N/A    frame=  804 fps=2.6 q=24.8 size=N/A time=00:00:16.08 bitrate=N/A    frame=  806 fps=2.6 q=24.8 size=N/A time=00:00:16.12 bitrate=N/A    frame=  808 fps=2.6 q=24.8 size=N/A time=00:00:16.16 bitrate=N/A    frame=  810 fps=2.6 q=24.8 size=N/A time=00:00:16.20 bitrate=N/A    frame=  812 fps=2.6 q=24.8 size=N/A time=00:00:16.24 bitrate=N/A    frame=  814 fps=2.6 q=24.8 size=N/A time=00:00:16.28 bitrate=N/A    frame=  816 fps=2.6 q=24.8 size=N/A time=00:00:16.32 bitrate=N/A    frame=  818 fps=2.6 q=24.8 size=N/A time=00:00:16.36 bitrate=N/A    frame=  820 fps=2.6 q=24.8 size=N/A time=00:00:16.40 bitrate=N/A    frame=  822 fps=2.6 q=24.8 size=N/A time=00:00:16.44 bitrate=N/A    frame=  824 fps=2.6 q=24.8 size=N/A time=00:00:16.48 bitrate=N/A    frame=  826 fps=2.6 q=24.8 size=N/A time=00:00:16.52 bitrate=N/A    frame=  828 fps=2.6 q=24.8 size=N/A time=00:00:16.56 bitrate=N/A    frame=  830 fps=2.6 q=24.8 size=N/A time=00:00:16.60 bitrate=N/A    frame=  832 fps=2.6 q=24.8 size=N/A time=00:00:16.64 bitrate=N/A    frame=  834 fps=2.6 q=24.8 size=N/A time=00:00:16.68 bitrate=N/A    frame=  836 fps=2.6 q=24.8 size=N/A time=00:00:16.72 bitrate=N/A    frame=  838 fps=2.6 q=24.8 size=N/A time=00:00:16.76 bitrate=N/A    frame=  840 fps=2.6 q=24.8 size=N/A time=00:00:16.80 bitrate=N/A    frame=  842 fps=2.6 q=24.8 size=N/A time=00:00:16.84 bitrate=N/A    frame=  844 fps=2.6 q=24.8 size=N/A time=00:00:16.88 bitrate=N/A    frame=  846 fps=2.6 q=24.8 size=N/A time=00:00:16.92 bitrate=N/A    frame=  848 fps=2.6 q=24.8 size=N/A time=00:00:16.96 bitrate=N/A    frame=  850 fps=2.6 q=24.8 size=N/A time=00:00:17.00 bitrate=N/A    frame=  852 fps=2.6 q=24.8 size=N/A time=00:00:17.04 bitrate=N/A    frame=  854 fps=2.6 q=24.8 size=N/A time=00:00:17.08 bitrate=N/A    frame=  856 fps=2.6 q=24.8 size=N/A time=00:00:17.12 bitrate=N/A    frame=  858 fps=2.6 q=24.8 size=N/A time=00:00:17.16 bitrate=N/A    frame=  860 fps=2.6 q=24.8 size=N/A time=00:00:17.20 bitrate=N/A    frame=  862 fps=2.6 q=24.8 size=N/A time=00:00:17.24 bitrate=N/A    frame=  864 fps=2.6 q=24.8 size=N/A time=00:00:17.28 bitrate=N/A    frame=  866 fps=2.6 q=24.8 size=N/A time=00:00:17.32 bitrate=N/A    frame=  868 fps=2.6 q=24.8 size=N/A time=00:00:17.36 bitrate=N/A    frame=  870 fps=2.6 q=24.8 size=N/A time=00:00:17.40 bitrate=N/A    frame=  872 fps=2.6 q=24.8 size=N/A time=00:00:17.44 bitrate=N/A    frame=  874 fps=2.6 q=24.8 size=N/A time=00:00:17.48 bitrate=N/A    frame=  876 fps=2.6 q=24.8 size=N/A time=00:00:17.52 bitrate=N/A    frame=  878 fps=2.6 q=24.8 size=N/A time=00:00:17.56 bitrate=N/A    frame=  880 fps=2.6 q=24.8 size=N/A time=00:00:17.60 bitrate=N/A    frame=  882 fps=2.6 q=24.8 size=N/A time=00:00:17.64 bitrate=N/A    frame=  884 fps=2.6 q=24.8 size=N/A time=00:00:17.68 bitrate=N/A    frame=  886 fps=2.6+ turkic load DJI_0072_30m_regi_disznoturas_homokmegy_20180603_napos_kalaszos_T4 /home/horvathandras/vatic/vatic/videos/DJI_0072_30m_regi_disznoturas_homokmegy_20180603_napos_kalaszos_T4 $'Pozit\303\255vROI' $'Negat\303\255vROI' $'T\303\272r\303\241s' '~Friss' '~1-2Hetes' '~Régebbi' '~Egyéb1' '~Egyéb2' '~Egyéb3' $'R\303\241g\303\241s' '~Friss' '~1-2Hetes' '~Régebbi' '~Egyéb1' '~Egyéb2' '~Egyéb3' $'T\303\266r\303\251s' '~Friss' '~1-2Hetes' '~Régebbi' '~Egyéb1' '~Egyéb2' '~Egyéb3' + turkic load DJI_0072_30m_regi_disznoturas_homokmegy_20180603_napos_kalaszos_T4 /home/horvathandras/vatic/vatic/videos/DJI_0072_30m_regi_disznoturas_homokmegy_20180603_napos_kalaszos_T4 $'Pozit\303\255vROI' $'Negat\303\255vROI' $'T\303\272r\303\241s' '~Friss' '~1-2Hetes' '~Régebbi' '~Egyéb1' '~Egyéb2' '~Egyéb3' $'R\303\241g\303\241s' '~Friss' '~1-2Hetes' '~Régebbi' '~Egyéb1' '~Egyéb2' '~Egyéb3' $'T\303\266r\303\251s' '~Friss' '~1-2Hetes' '~Régebbi' '~Egyéb1' '~Egyéb2' '~Egyéb3' $'Tapos\303\241s' '~Friss' '~1-2Hetes' '~Régebbi' '~Egyéb1' '~Egyéb2' '~Egyéb3' $'Eg\303\251szs\303\251gesN\303\266v\303\251ny' $'Egy\303\251b1' $'Egy\303\251b2' $'Egy\303\251b3' $'Egy\303\251b4' $'Egy\303\251b5' Bizonytalan $'M\305\261vel\305\221\303\272t' $'Gktapos\303\241s' $'Vet\305\221hiba' $'Sz\303\251ld\303\266nt\303\251s' $'J\303\251gk\303\241r' $'Belv\303\255z' $'Asz\303\241ly' $'Er\303\263zi\303\263' $'Egyszik\305\261Gyom' $'K\303\251tszik\305\261Gyom' $'Egy\303\251bN\303\266vv\303\251delmiPR' --offline --title '$filenameNoDot Video' --length 1000 --description 'vatic annotation'
+ turkic publish --offline
+ mkdir /home/horvathandras/vatic/vatic/public/videothumbnails/DJI_0072_30m_regi_disznoturas_homokmegy_20180603_napos_kalaszos_T4
mkdir: cannot create directory '/home/horvathandras/vatic/vatic/public/videothumbnails/DJI_0072_30m_regi_disznoturas_homokmegy_20180603_napos_kalaszos_T4': File exists
+ cp /home/horvathandras/vatic/vatic/videos/DJI_0072_30m_regi_disznoturas_homokmegy_20180603_napos_kalaszos_T4/0/0/31.jpg /home/horvathandras/vatic/vatic/public/videothumbnails/DJI_0072_30m_regi_disznoturas_homokmegy_20180603_napos_kalaszos_T4/thumb.jpg
